<svg viewBox="0 0 1080 1080" fill="none" xmlns="http://www.w3.org/2000/svg">      <defs>  <filter id="filter" x="-20%" y="-20%" width="140%" height="140%" filterUnits="objectBoundingBox" primitiveUnits="userSpaceOnUse" color-interpolation-filters="linearRGB">    <feMorphology operator="dilate" radius="20 20" in="SourceAlpha" result="morphology"/>    <feFlood flood-color="#ffffff" flood-opacity="1" result="flood"/>    <feComposite in="flood" in2="morphology" operator="in" result="composite"/>    <feMerge result="merge">          <feMergeNode in="composite" result="mergeNode"/>      <feMergeNode in="SourceGraphic" result="mergeNode1"/>      </feMerge>  </filter></defs>      <g id="notion-avatar" filter="url(#filter)">        <g id="notion-avatar-face" fill="#ffffff">      <!--?xml version="1.0" encoding="UTF-8"?-->    <title>Face/ 8</title>    <g id="Face/-8" stroke="none" stroke-width="1" fill-rule="evenodd" stroke-linecap="round" stroke-linejoin="round">        <path d="M532,379 C664.54834,379 772,486.45166 772,619 C772,751.54834 724.54834,899 592,899 C492.560218,899 373.476049,816.010833 320.189513,718.584987 C317.498129,718.859681 314.765451,719 312,719 C267.81722,719 232,683.18278 232,639 C232,599.134956 261.158843,566.080325 299.312086,560.00055 C325.599297,455.979213 419.809919,379 532,379 Z M295.858895,624.545187 L304.141105,655.454813" id="Path" stroke="#000000" stroke-width="24"/>    </g>    </g><g id="notion-avatar-nose">      <!--?xml version="1.0" encoding="UTF-8"?-->    <title>Nose/ 10</title>    <g id="Nose/-10" stroke="none" stroke-width="1" fill="none" fill-rule="evenodd" stroke-linecap="round" stroke-linejoin="round">        <path d="M631,694.380659 C660.333333,687.46022 678,677.333333 684,664 C693,644 637.033407,606.392531 660.161467,579" id="Path" stroke="#000000" stroke-width="16"/>    </g>    </g><g id="notion-avatar-mouth">      <!--?xml version="1.0" encoding="UTF-8"?-->    <title>Mouth/ 1</title>    <g id="Mouth/-1" stroke="none" stroke-width="1" fill="none" fill-rule="evenodd" stroke-linecap="round" stroke-linejoin="round">        <path d="M549,759 C575.12979,773.666667 603.12979,781 633,781 C662.87021,781 682.87021,773.666667 693,759" id="Path" stroke="#000000" stroke-width="16"/>    </g>    </g><g id="notion-avatar-eyes">      <!--?xml version="1.0" encoding="UTF-8"?-->    <title>Eyes/ 4</title>    <g id="Eyes/-4" stroke="none" stroke-width="1" fill="none" fill-rule="evenodd">        <path d="M570,516 C583.254834,516 594,526.745166 594,540 C594,553.254834 583.254834,564 570,564 C556.745166,564 546,553.254834 546,540 C546,526.745166 556.745166,516 570,516 Z M708,516 C721.254834,516 732,526.745166 732,540 C732,553.254834 721.254834,564 708,564 C694.745166,564 684,553.254834 684,540 C684,526.745166 694.745166,516 708,516 Z M562,526 C558.686292,526 556,528.686292 556,532 C556,535.313708 558.686292,538 562,538 C565.313708,538 568,535.313708 568,532 C568,528.686292 565.313708,526 562,526 Z M700,526 C696.686292,526 694,528.686292 694,532 C694,535.313708 696.686292,538 700,538 C703.313708,538 706,535.313708 706,532 C706,528.686292 703.313708,526 700,526 Z" id="Combined-Shape" fill="#000000"/>    </g>    </g><g id="notion-avatar-eyebrows">      <g id="Eyebrows/ 13"><g id="Group"><path id="Path" fill-rule="evenodd" clip-rule="evenodd" d="M662.391 482.335C665.391 477.335 722.391 459.335 742.391 462.335C762.391 465.335 791.391 491.335 791.391 491.335C791.391 491.335 764.391 480.335 739.391 480.335C714.391 480.335 679.391 498.335 679.391 498.335C679.391 498.335 659.391 487.335 662.391 482.335Z" fill="black" stroke="black" stroke-width="4" stroke-linecap="round" stroke-linejoin="round"/><path id="Path_2" fill-rule="evenodd" clip-rule="evenodd" d="M615 482.335C612 477.335 555 459.335 535 462.335C515 465.335 486 491.335 486 491.335C486 491.335 513 480.335 538 480.335C563 480.335 598 498.335 598 498.335C598 498.335 618 487.335 615 482.335Z" fill="black" stroke="black" stroke-width="4" stroke-linecap="round" stroke-linejoin="round"/></g></g>    </g><g id="notion-avatar-glasses">      <!--?xml version="1.0" encoding="UTF-8"?-->    <title>Glasses/ 3</title>    <g id="Glasses/-3" stroke="none" stroke-width="1" fill="none" fill-rule="evenodd" stroke-linecap="round" stroke-linejoin="round">        <g id="Group" transform="translate(293.000000, 488.000000)" stroke="#000000" stroke-width="8">            <path d="M197.493245,10.4280671 C174.636102,27.3582996 188.604356,103.544346 244.477372,103.544346 C300.350388,103.544346 337.149222,42.6997481 325.747213,20.1024857 C314.345204,-2.49477675 220.350388,-6.50216547 197.493245,10.4280671 Z" id="Path"/>            <path d="M376.540864,10.4280671 C353.683721,27.3582996 367.651975,103.544346 423.524991,103.544346 C479.398007,103.544346 516.196841,42.6997481 504.794832,20.1024857 C493.392823,-2.49477675 399.398007,-6.50216547 376.540864,10.4280671 Z" id="Path" transform="translate(436.458153, 51.772173) scale(-1, 1) translate(-436.458153, -51.772173) "/>            <line x1="301.285714" y1="5.44186047" x2="392.714286" y2="5.44186047" id="Path"/>            <line x1="326.68254" y1="21.1627907" x2="367.31746" y2="21.1627907" id="Path"/>            <line x1="186.554557" y1="30.8015819" x2="1.25992802" y2="69.9860126" id="Path" transform="translate(94.259928, 50.646655) rotate(1.361411) translate(-94.259928, -50.646655) "/>        </g>    </g>    </g><g id="notion-avatar-hair">      <g id="Hairstyle/ 51"><path id="Path" fill-rule="evenodd" clip-rule="evenodd" d="M382.001 274C429.761 244.346 494.39 241.407 575.889 265.181L577.14 264.65C597.829 255.949 630.441 246.059 677.001 272C747.001 311 754.98 383.101 781.001 387C799.46 389.766 805.56 435.498 822.001 477C828.104 492.404 867.001 502 867.001 502L822.001 521C822.001 521 831.927 531.092 845.001 539C856.33 545.852 876.001 570 876.001 570C876.001 570 833.793 577.748 828.001 590C824.892 596.577 861.406 604.103 872.001 648C886.001 706 839.99 786.03 868.953 803.495C882.072 811.406 916.953 833.495 916.953 833.495C916.953 833.495 864.775 885.051 840.953 878.495C804.135 868.363 756.953 833.495 756.953 833.495C756.953 833.495 768.409 700.557 764.001 625C760.916 572.103 746.184 514.788 732.001 493C697.561 440.091 627.001 387 540.001 387C473.08 387 468.925 425.463 468.925 425.463C465.119 446.727 465.116 469.946 450.001 502C423.775 557.618 331.05 595.505 331.05 624.505C331.05 653.505 340.05 654.505 340.05 670.505C340.05 686.505 328.02 694.862 331.05 716.505C333.07 730.933 344.021 804.095 360.001 825C332.475 852.867 306.808 870.534 283.001 878C259.195 885.466 228.528 885.466 191.001 878C200.307 869.655 206.974 861.989 211.001 855L211.393 854.308C215.33 847.232 219.867 835.462 225.001 819C218.698 825.705 212.365 830.371 206.001 833C199.637 835.628 190.637 837.295 179.001 838L181.003 835.564C186.363 829.017 190.521 823.735 193.477 819.717L194.434 818.408C199.252 811.846 203.628 806.7 201.001 796C198.297 784.981 163.573 686.372 165.05 653.505C166.035 631.593 176.701 599.259 197.05 556.505C193.586 560.378 189.586 563.378 185.05 565.505C180.513 567.631 173.847 569.631 165.05 571.505L166.29 570.4C177.121 560.712 184.708 552.746 189.05 546.505C193.556 540.027 196.222 533.027 197.05 525.505C190.855 527.314 185.855 527.98 182.05 527.505C178.244 527.029 172.578 525.029 165.05 521.505L166.345 520.889C174.864 516.82 181.099 513.358 185.05 510.505C189.198 507.508 194.532 502.508 201.05 495.505L202.221 492.969C221.276 451.815 236.552 423.661 248.05 408.505C280.199 366.126 314.722 340.408 344.05 318.505C360.26 306.398 368.717 282.248 382.001 274Z" fill="black" stroke="black" stroke-width="12" stroke-linecap="round" stroke-linejoin="round"/></g>    </g><g id="notion-avatar-accessories">      <!--?xml version="1.0" encoding="UTF-8"?-->    <title>Accessories/ 0</title>    <g id="Accessories/-0" stroke="none" stroke-width="1" fill="none" fill-rule="evenodd"/>    </g><g id="notion-avatar-details">      <!--?xml version="1.0" encoding="UTF-8"?-->    <title>Details/ 0</title>    <g id="Details/-0" stroke="none" stroke-width="1" fill="none" fill-rule="evenodd"/>    </g><g id="notion-avatar-beard">      <g id="Beard/ 14"><g id="Group"><path id="Path" fill-rule="evenodd" clip-rule="evenodd" d="M369.784 644C394.451 743.333 418.189 800 441 814L442.908 815.167C473.534 833.823 478.186 832.826 506.716 816.95C511.244 824.656 517.339 832.429 525.238 840L526.909 841.597C553.91 867.317 566.658 875.363 588.156 877.871L600 850H628L641.871 877.739C671.383 873.576 679.896 859.137 697.53 835C703.248 827.173 707.743 818.58 710.871 809.933L715.567 810.369C730.175 811.765 740.28 813.107 743 814C756.082 818.293 723.784 869 707 887C690.216 905 660.216 925 615 925C569.784 925 482.098 914.714 411.784 857C364.909 818.524 347.575 747.524 359.784 644H369.784Z" fill="black" stroke="black" stroke-width="12" stroke-linecap="round" stroke-linejoin="round"/><path id="Path_2" fill-rule="evenodd" clip-rule="evenodd" d="M608.276 721.024C620.49 720.388 613.298 732.659 608.276 734.496C606.833 735.023 594.815 735.554 585.174 736.945C561.252 740.398 527.346 745.779 525.914 744.906C523.905 743.681 524.91 741.232 531.94 735.72C538.971 730.209 596.062 721.659 608.276 721.024Z" fill="black" stroke="black" stroke-width="12" stroke-linecap="round" stroke-linejoin="round"/><path id="Path_3" fill-rule="evenodd" clip-rule="evenodd" d="M643.724 721.024C631.51 720.388 638.702 732.659 643.724 734.496C645.167 735.023 657.185 735.554 666.826 736.945C690.748 740.398 724.654 745.779 726.086 744.906C728.095 743.681 727.09 741.232 720.06 735.72C713.029 730.209 655.938 721.659 643.724 721.024Z" fill="black" stroke="black" stroke-width="12" stroke-linecap="round" stroke-linejoin="round"/></g></g>    </g>      </g>      </svg>